<?xml version="1.0" encoding="iso-8859-1"?>
<!-- Generator: Adobe Illustrator 19.0.0, SVG Export Plug-In . SVG Version: 6.00 Build 0)  -->
<svg version="1.1" id="Capa_1" xmlns="http://www.w3.org/2000/svg" xmlns:xlink="http://www.w3.org/1999/xlink" x="0px" y="0px"
	 viewBox="0 0 507.52 507.52" style="enable-background:new 0 0 507.52 507.52;" xml:space="preserve">
<g transform="matrix(1.25 0 0 -1.25 0 45)">
	<g>
		<g>
			<path style="fill:#FFCB4E;" d="M373.641-150.044c12.197,69.222,14.359,171.213,0,180.497
				c-14.359,9.273-114.597-25.213-135.555-71.259c-11.435,3.038-35.123,4.54-35.123,4.54s-22.903-1.502-34.327-4.54
				C147.678,5.239,46.655,39.726,32.307,30.453c-14.359-9.284-12.22-111.275,0-180.497c0,0-11.002-22.517-11.002-101.831
				l182.044,45.136v9.523l182.044-55.034C385.394-172.561,373.641-150.044,373.641-150.044"/>
			<path style="fill:#FFD882;" d="M270.626-176.009c-23.723,0-48.617-5.427-67.277-14.575
				c-18.648,9.148-43.543,14.575-67.265,14.575c-113.004,0-114.779-58.027-114.779-75.822c0-17.738,22.38-114.153,181.669-114.153
				s182.42,96.04,182.42,113.778C385.394-234.411,383.619-176.009,270.626-176.009"/>
			<g>
				<path style="fill:#F28F20;" d="M264.482-48.259c24.69,27.113,76.015,47.468,86.551,44.885
					c8.556-2.059,7.225-72.658,0.364-113.061C322.236-68.079,264.482-48.259,264.482-48.259"/>
				<path style="fill:#F28F20;" d="M142.217-48.259C117.55-21.146,66.213-0.791,55.677-3.374
					c-8.567-2.059-7.236-72.658-0.353-113.061C84.486-68.079,142.217-48.259,142.217-48.259"/>
			</g>
			<path style="fill:#FAAA35;" d="M248.94-184.178c0,53.396-20.582,147.911-45.966,147.911s-45.966-94.515-45.966-147.911
				c0-53.419,20.582-22.756,45.966-22.756S248.94-237.596,248.94-184.178"/>
			<path id="SVGCleanerId_0" style="fill:#2A2F33;" d="M169.068-150.044c0-12.572-10.286-22.756-22.983-22.756
				c-12.686,0-22.972,10.183-22.972,22.756c0,12.561,10.286,22.733,22.972,22.733C158.783-127.312,169.068-137.483,169.068-150.044"
				/>
			<g transform="translate(10.02)">
				<path id="SVGCleanerId_0_1_" style="fill:#2A2F33;" d="M283.074-150.044c0-12.572-10.286-22.756-22.983-22.756
					c-12.686,0-22.972,10.183-22.972,22.756c0,12.561,10.286,22.733,22.972,22.733C272.788-127.312,283.074-137.483,283.074-150.044
					"/>
			</g>
			<g>
				<path style="fill:#F28F20;" d="M203.202-285.156c-6.292,0-11.378,5.086-11.378,11.378v32.711
					c0,6.292,5.086,11.378,11.378,11.378s11.378-5.086,11.378-11.378v-32.711C214.579-280.07,209.493-285.156,203.202-285.156"/>
				<path style="fill:#F28F20;" d="M249.282-310.266c-45.534,0-56.4,31.414-56.9,32.95c-1.957,5.973,1.297,12.402,7.282,14.347
					c5.951,1.957,12.265-1.24,14.29-7.1c0.501-1.32,9.967-24.314,55.046-15.303c6.224,1.274,12.174-2.776,13.392-8.932
					c1.24-6.167-2.765-12.151-8.92-13.38C264.494-309.493,256.461-310.266,249.282-310.266"/>
				<path style="fill:#F28F20;" d="M156.678-310.266c-7.191,0-15.212,0.774-24.201,2.583c-6.155,1.229-10.16,7.214-8.92,13.38
					c1.217,6.155,7.157,10.217,13.392,8.932c45.534-9.079,55.159,14.45,55.546,15.462c2.23,5.78,8.727,8.841,14.541,6.724
					s8.932-8.397,6.94-14.245C213.453-278.977,202.212-310.266,156.678-310.266"/>
			</g>
			<path style="fill:#292F33;" d="M248.713-202.291c0-20.002-36.591-45.272-45.739-45.272c-9.125,0-45.727,25.27-45.727,45.272
				c0,20.025,25.532,18.113,45.727,18.113C223.181-184.178,248.713-182.266,248.713-202.291"/>
			<g>
				<path style="fill:#F39120;" d="M385.246-319.972c-3.152,0-6.292,1.308-8.545,3.857c-0.341,0.398-36.193,39.845-118.443,52.611
					c-6.212,0.967-10.468,6.781-9.5,12.982c0.967,6.212,6.793,10.422,12.993,9.5c4.164-0.637,8.226-1.354,12.197-2.116
					c82.398-15.974,118.318-56.206,119.876-57.981c4.119-4.733,3.63-11.924-1.104-16.054
					C390.571-319.05,387.897-319.972,385.246-319.972"/>
				<path style="fill:#F39120;" d="M259.977-263.595c-4.619,0-8.977,2.844-10.684,7.43c-2.173,5.905,0.853,12.447,6.736,14.62
					c62.316,23.029,138.365,2.15,141.665,1.24c6.053-1.695,9.58-7.953,7.908-14.006c-1.673-6.053-7.93-9.58-13.995-7.93
					c-0.728,0.205-72.34,19.786-127.681-0.66C262.616-263.367,261.285-263.595,259.977-263.595"/>
				<path style="fill:#F39120;" d="M20.793-319.972c3.152,0,6.292,1.308,8.545,3.857c0.341,0.398,36.193,39.845,118.443,52.611
					c6.212,0.967,10.468,6.781,9.5,12.982c-0.967,6.212-6.793,10.422-12.982,9.5c-4.176-0.637-8.238-1.354-12.208-2.116
					c-82.398-15.974-118.318-56.206-119.876-57.981c-4.119-4.733-3.63-11.924,1.104-16.054
					C15.468-319.05,18.142-319.972,20.793-319.972"/>
				<path style="fill:#F39120;" d="M146.04-263.595c4.619,0,8.977,2.844,10.684,7.43c2.173,5.905-0.853,12.447-6.736,14.62
					c-62.316,23.029-138.365,2.15-141.665,1.24C2.27-242-1.257-248.257,0.415-254.31s7.93-9.58,13.995-7.93
					c0.728,0.205,72.34,19.786,127.681-0.66C143.4-263.367,144.731-263.595,146.04-263.595"/>
			</g>
		</g>
	</g>
</g>
<g>
</g>
<g>
</g>
<g>
</g>
<g>
</g>
<g>
</g>
<g>
</g>
<g>
</g>
<g>
</g>
<g>
</g>
<g>
</g>
<g>
</g>
<g>
</g>
<g>
</g>
<g>
</g>
<g>
</g>
</svg>
