<?xml version="1.0" encoding="iso-8859-1"?>
<!-- Generator: Adobe Illustrator 19.0.0, SVG Export Plug-In . SVG Version: 6.00 Build 0)  -->
<svg version="1.1" id="Capa_1" xmlns="http://www.w3.org/2000/svg" xmlns:xlink="http://www.w3.org/1999/xlink" x="0px" y="0px"
	 viewBox="0 0 468.293 468.293" style="enable-background:new 0 0 468.293 468.293;" xml:space="preserve">
<path style="fill:#3EA69B;" d="M452.296,234.146c0-12.328,4.649-23.091,11.582-28.973c2.653-2.251,4.415-5.369,4.415-8.848v-0.512
	c0-5.777-4.459-10.549-10.212-11.072c-47.802-4.346-74.876,49.406-74.876,49.406s27.073,53.75,74.875,49.406
	c5.753-0.523,10.212-5.295,10.212-11.072v-0.512c0-3.479-1.762-6.597-4.415-8.848C456.944,257.237,452.296,246.475,452.296,234.146z
	"/>
<g>
	<path style="fill:#31978C;" d="M105.927,135.494c6.548-38.476,67.114-72.234,67.114-72.234s-5.688,28.561,47.901,24.837
		c0,0,4.481,20.477,35.583,16.873c0,0,2.445,12.873,27.004,11.843l-40.1,28.884H105.927V135.494z"/>
	<path style="fill:#31978C;" d="M105.927,332.798c6.548,38.476,67.114,72.234,67.114,72.234s-5.688-28.561,47.901-24.837
		c0,0,4.481-20.477,35.583-16.873c0,0,2.445-12.873,27.004-11.843l-40.1-28.884H105.927V332.798z"/>
</g>
<path style="fill:#44C4A1;" d="M210.48,347.259c88.215,0,165.501-42.951,208.743-107.377c2.315-3.449,2.315-8.023,0-11.473
	c-43.242-64.424-120.528-107.376-208.743-107.376c-88.216,0-165.502,42.951-208.744,107.376c-2.315,3.449-2.315,8.023,0,11.473
	C44.978,304.308,122.264,347.259,210.48,347.259z"/>
<circle style="fill:#E1E6E9;" cx="74.583" cy="216.976" r="31.344"/>
<circle style="fill:#3A556A;" cx="74.583" cy="216.976" r="20.892"/>
<circle style="fill:#E1E6E9;" cx="65.367" cy="207.735" r="11.682"/>
<g>
	<path style="fill:#3EA69B;" d="M139.927,211.098v2.006c10.205,3.629,17.312,11.673,17.312,21.042s-7.108,17.413-17.312,21.042
		v2.006c15.315-0.824,27.422-10.814,27.422-23.048S155.242,211.922,139.927,211.098z"/>
	<path style="fill:#3EA69B;" d="M139.927,265.439v2.006c10.205,3.629,17.312,11.673,17.312,21.042
		c0,9.369-7.108,17.413-17.312,21.042v2.006c15.315-0.824,27.422-10.814,27.422-23.048S155.242,266.263,139.927,265.439z"/>
	<path style="fill:#3EA69B;" d="M139.927,156.758v2.006c10.205,3.629,17.312,11.673,17.312,21.042s-7.108,17.413-17.312,21.042
		v2.006c15.315-0.824,27.422-10.814,27.422-23.048C167.349,167.572,155.242,157.582,139.927,156.758z"/>
	<path style="fill:#3EA69B;" d="M231.334,211.098v2.006c10.205,3.629,17.312,11.673,17.312,21.042s-7.108,17.413-17.312,21.042
		v2.006c15.315-0.824,27.422-10.814,27.422-23.048S246.649,211.922,231.334,211.098z"/>
	<path style="fill:#3EA69B;" d="M277.038,211.098v2.006c10.204,3.629,17.312,11.673,17.312,21.042s-7.108,17.413-17.312,21.042
		v2.006c15.315-0.824,27.422-10.814,27.422-23.048S292.353,211.922,277.038,211.098z"/>
	<path style="fill:#3EA69B;" d="M231.334,265.439v2.006c10.205,3.629,17.312,11.673,17.312,21.042
		c0,9.369-7.108,17.413-17.312,21.042v2.006c15.315-0.824,27.422-10.814,27.422-23.048S246.649,266.263,231.334,265.439z"/>
	<path style="fill:#3EA69B;" d="M231.334,156.758v2.006c10.205,3.629,17.312,11.673,17.312,21.042s-7.108,17.413-17.312,21.042
		v2.006c15.315-0.824,27.422-10.814,27.422-23.048C258.756,167.572,246.649,157.582,231.334,156.758z"/>
	<path style="fill:#3EA69B;" d="M324.798,238.268v2.006c10.204,3.629,17.312,11.673,17.312,21.042
		c0,9.369-7.108,17.413-17.312,21.042v2.006c15.315-0.824,27.422-10.814,27.422-23.048
		C352.22,249.082,340.113,239.093,324.798,238.268z"/>
	<path style="fill:#3EA69B;" d="M324.798,183.928v2.006c10.204,3.629,17.312,11.673,17.312,21.042s-7.108,17.413-17.312,21.042
		v2.006c15.315-0.824,27.422-10.814,27.422-23.048S340.113,184.752,324.798,183.928z"/>
	<path style="fill:#3EA69B;" d="M185.631,238.268v2.006c10.204,3.629,17.312,11.673,17.312,21.042
		c0,9.369-7.108,17.413-17.312,21.042v2.006c15.315-0.824,27.422-10.814,27.422-23.048
		C213.053,249.082,200.946,239.093,185.631,238.268z"/>
	<path style="fill:#3EA69B;" d="M185.631,183.928v2.006c10.204,3.629,17.312,11.673,17.312,21.042s-7.108,17.413-17.312,21.042
		v2.006c15.315-0.824,27.422-10.814,27.422-23.048S200.946,184.752,185.631,183.928z"/>
</g>
<g>
</g>
<g>
</g>
<g>
</g>
<g>
</g>
<g>
</g>
<g>
</g>
<g>
</g>
<g>
</g>
<g>
</g>
<g>
</g>
<g>
</g>
<g>
</g>
<g>
</g>
<g>
</g>
<g>
</g>
</svg>
