<?xml version="1.0" encoding="iso-8859-1"?>
<!-- Generator: Adobe Illustrator 19.0.0, SVG Export Plug-In . SVG Version: 6.00 Build 0)  -->
<svg version="1.1" id="Capa_1" xmlns="http://www.w3.org/2000/svg" xmlns:xlink="http://www.w3.org/1999/xlink" x="0px" y="0px"
	 viewBox="0 0 512 512" style="enable-background:new 0 0 512 512;" xml:space="preserve">
<g>
	<path style="fill:#4B3F4E;" d="M511.472,342.452c-4.454-8.163-9.616-24.3-6.217-52.926c9.911-83.464-14.258-136.846-69.901-124.674
		l3.652,11.476c49.035-3.652,37.722,75.688,34.429,116.849c-2.685,33.569,14.145,51.008,33.537,55.284
		C510.468,349.232,513.187,345.595,511.472,342.452z"/>
	<path style="fill:#4B3F4E;" d="M112.454,31.31c-38.86-9.316-70.41,11.14-81.021,21.606c-2.709,2.672-2.025,7.188,1.307,9.025
		l20.768,11.448l192.314,80.682C229.912,142.856,188.615,49.567,112.454,31.31z"/>
</g>
<path style="fill:#AF6E5A;" d="M441.614,249.359c15.302-31.995,13.911-72.335-8.346-91.81
	c-22.647-19.817-58.102-25.256-116.849-9.738c-73.726,19.475-71.439,2.653-90.419-16.693
	c-29.263-29.826-73.069-60.223-106.884-71.416c-10.288-3.405-21.197-4.344-31.957-3.055l-15.802,1.892
	c-6.34,0.759-12.432,2.907-17.84,6.289c-5.076,3.173-8.868,8.055-10.834,13.709l-3.895,11.199c-0.956,2.75-2.382,5.314-4.213,7.577
	L1.864,137.741c-2.692,3.319-2.442,8.137,0.581,11.159l7.766,6.04c4.884,4.884,12.271,6.256,18.583,3.45l60.27-27.316
	c2.463-1.116,5.366-0.076,6.56,2.35l61.169,124.281l16.693,196.14l-15.738,22.033c-2.147,3.005,0.002,7.18,3.695,7.18h20.301
	c2.396,0,4.38-1.862,4.531-4.253l5.589-88.025c1.658-26.11,4.381-52.141,8.162-78.029l3.663-25.075
	c68.662,23.95,126.084-14.685,146.481-31.305c11.85,28.533,36.586,77.227,78.923,114.011l13.563,82.16l-13.771,23.694
	c-1.759,3.027,0.425,6.822,3.926,6.822h20.954c2.508,0,4.541-2.033,4.541-4.54V358.67c0-5.368-2.716-10.24-6.965-13.521
	C425.277,325.026,427.909,278.014,441.614,249.359z"/>
<path style="fill:#965A50;" d="M53.919,38.412l9.95,28.437c1.029,2.94,4.089,4.649,7.131,3.984l25.86-5.654
	c3.512-0.768,5.038-4.9,2.842-7.746c-5.927-7.679-18.549-20.344-40.008-25.388C55.949,31.165,52.649,34.781,53.919,38.412z"/>
<path style="fill:#4B3F4E;" d="M68.114,104.341c-4.609,0-8.387-3.737-8.387-8.346s3.696-8.346,8.306-8.346h0.082
	c4.609,0,8.346,3.737,8.346,8.346S72.723,104.341,68.114,104.341z"/>
<g>
	<path style="fill:#965A50;" d="M95.625,133.424l61.169,124.281c-3.939-45.152-23.986-125.952-29.078-145.991
		c-0.739-2.908-2.768-5.29-5.516-6.497l0,0c-4.824-2.118-10.441-0.011-12.659,4.767c-4.235,9.121-12.38,16.911-20.476,21.09
		C91.467,129.835,94.431,130.998,95.625,133.424z"/>
	<path style="fill:#965A50;" d="M206.019,274.033l-2.329,13.642c68.662,23.95,126.084-14.685,146.481-31.305l-0.263-0.882
		c-2.136-7.173-10.043-10.837-16.948-7.949c-47.679,19.935-86.335,17.162-107.127,12.965
		C216.563,258.632,207.611,264.709,206.019,274.033z"/>
</g>
<g>
	<path style="fill:#4B3F4E;" d="M161.444,483.057h20.301c2.396,0,4.38-1.862,4.531-4.253l0.79-12.44h-22.522l-6.795,9.513
		C155.603,478.883,157.751,483.057,161.444,483.057z"/>
	<path style="fill:#4B3F4E;" d="M434.623,466.365l-5.737,9.871c-1.76,3.027,0.424,6.822,3.926,6.822h20.954
		c2.508,0,4.54-2.033,4.54-4.54v-12.152L434.623,466.365L434.623,466.365z"/>
</g>
<path style="fill:#BE826E;" d="M22.978,111.646L1.864,137.741c-2.692,3.319-2.442,8.137,0.581,11.159l7.766,6.04
	c4.884,4.884,12.271,6.256,18.583,3.45l29.861-13.534C49.968,126.88,34.861,116.927,22.978,111.646z"/>
<path style="fill:#965A50;" d="M11.261,143.451c-1.8-2.187-6.145-1.586-9.704,1.342l-0.063,0.052c-0.364,0.3-0.602,0.649-0.92,0.97
	c0.404,1.122,0.977,2.191,1.87,3.085l5.231,4.069c0.13-0.099,0.271-0.148,0.399-0.253C11.634,149.787,13.061,145.639,11.261,143.451
	z"/>
<g>
</g>
<g>
</g>
<g>
</g>
<g>
</g>
<g>
</g>
<g>
</g>
<g>
</g>
<g>
</g>
<g>
</g>
<g>
</g>
<g>
</g>
<g>
</g>
<g>
</g>
<g>
</g>
<g>
</g>
</svg>
