<?xml version="1.0" encoding="iso-8859-1"?>
<!-- Generator: Adobe Illustrator 19.0.0, SVG Export Plug-In . SVG Version: 6.00 Build 0)  -->
<svg version="1.1" id="Capa_1" xmlns="http://www.w3.org/2000/svg" xmlns:xlink="http://www.w3.org/1999/xlink" x="0px" y="0px"
	 viewBox="0 0 504.525 504.525" style="enable-background:new 0 0 504.525 504.525;" xml:space="preserve">
<path style="fill:#77B255;" d="M168.162,71.2c7.3,0.6,13,6.7,13,14.2c0,7.9-6.4,14.2-14.2,14.2v236.5c-16-6.8-28.4-19.5-28.4-35.6
	v-16c0,7.9-6.4,14.2-14.2,14.2s-14.2-6.4-14.2-14.2s6.4-14.2,14.2-14.2s14.2,6.4,14.2,14.2v-56.9c0-31.4-25.5-56.9-56.9-56.9
	s-56.9,25.5-56.9,56.9v14.2c7.9,0,14.2,6.4,14.2,14.2s-6.4,14.2-14.2,14.2v56.9c0,22.6,12.8,41.1,28.6,54.7c1-6.8,6.9-12.1,14-12.1
	c7.9,0,14.2,6.4,14.2,14.2c0,5.3-2.9,10-7.3,12.4c18.9,10,66.4,21.9,92.6,22.6v50.3c0,47.1,170.7,47.1,170.7,0V362
	c16.9-1,40.5-5.7,60.4-11.3c-2.2-2.5-3.5-5.7-3.5-9.3c0-7.9,6.4-14.2,14.2-14.2s14.2,6.4,14.2,14.2c0,0.2,0,0.5,0,0.7
	c2.6-1.1,4.9-2.3,6.8-3.4c23.1-13.3,50.1-37,50.1-68.4V128c-7.9,0-14.2-6.4-14.2-14.2c0-7.3,5.4-13.2,12.5-14.1
	c-6.3-24.6-28.6-42.8-55.1-42.8c-31.4,0-56.9,25.5-56.9,56.9v129.8c0,15.4-12.6,27.9-28.4,34.8v-193c0-11-2.1-21.5-5.9-31.2
	c-2.3,1.7-5.2,2.7-8.3,2.7c-7.9,0-14.2-6.4-14.2-14.2c0-5.6,3.2-10.4,8-12.8c-15.8-18.3-39-29.9-65-29.9
	C209.962,0,174.862,30.8,168.162,71.2z M451.362,213.3c7.9,0,14.2,6.4,14.2,14.2c0,7.9-6.4,14.2-14.2,14.2
	c-7.9,0-14.2-6.4-14.2-14.2C437.162,219.7,443.462,213.3,451.362,213.3z M394.462,142.2c7.9,0,14.2,6.4,14.2,14.2
	s-6.4,14.2-14.2,14.2s-14.2-6.4-14.2-14.2S386.662,142.2,394.462,142.2z M323.362,426.7c0,7.9-6.4,14.2-14.2,14.2
	c-7.9,0-14.2-6.4-14.2-14.2c0-7.9,6.4-14.2,14.2-14.2C317.062,412.4,323.362,418.8,323.362,426.7z M294.962,113.8
	c7.9,0,14.2,6.4,14.2,14.2s-6.4,14.2-14.2,14.2c-7.9,0-14.2-6.4-14.2-14.2S287.062,113.8,294.962,113.8z M280.662,270.2
	c7.9,0,14.2,6.4,14.2,14.2s-6.4,14.2-14.2,14.2c-7.8,0-14.2-6.4-14.2-14.2S272.862,270.2,280.662,270.2z M181.162,384
	c-7.9,0-14.2-6.4-14.2-14.2c0-7.9,6.4-14.2,14.2-14.2c7.9,0,14.2,6.4,14.2,14.2C195.362,377.6,189.062,384,181.162,384z
	 M209.562,227.6c0,7.9-6.4,14.2-14.2,14.2c-7.9,0-14.2-6.4-14.2-14.2c0-7.9,6.4-14.2,14.2-14.2
	C203.262,213.3,209.562,219.7,209.562,227.6z"/>
<g>
	<path style="fill:#3E721D;" d="M181.162,85.3c0-7.4-5.7-13.6-13-14.2c-0.4,0-0.8-0.1-1.2-0.1c-7.9,0-14.2,6.4-14.2,14.2
		c0,7.9,6.4,14.2,14.2,14.2C174.762,99.6,181.162,93.2,181.162,85.3z"/>
	<path style="fill:#3E721D;" d="M309.162,42.7c0,7.9,6.4,14.2,14.2,14.2c3.1,0,6-1,8.3-2.7c3.6-2.6,5.9-6.8,5.9-11.5
		c0-7.9-6.4-14.2-14.2-14.2c-2.2,0-4.4,0.5-6.3,1.5C312.362,32.2,309.162,37.1,309.162,42.7z"/>
	<path style="fill:#3E721D;" d="M294.962,142.2c7.9,0,14.2-6.4,14.2-14.2s-6.4-14.2-14.2-14.2c-7.9,0-14.2,6.4-14.2,14.2
		S287.062,142.2,294.962,142.2z"/>
	<path style="fill:#3E721D;" d="M181.162,227.6c0,7.9,6.4,14.2,14.2,14.2c7.9,0,14.2-6.4,14.2-14.2c0-7.9-6.4-14.2-14.2-14.2
		C187.462,213.3,181.162,219.7,181.162,227.6z"/>
	<path style="fill:#3E721D;" d="M280.662,298.7c7.9,0,14.2-6.4,14.2-14.2s-6.4-14.2-14.2-14.2c-7.8,0-14.2,6.4-14.2,14.2
		S272.862,298.7,280.662,298.7z"/>
	<path style="fill:#3E721D;" d="M181.162,355.6c-7.9,0-14.2,6.4-14.2,14.2c0,7.9,6.4,14.2,14.2,14.2c7.9,0,14.2-6.4,14.2-14.2
		C195.362,361.9,189.062,355.6,181.162,355.6z"/>
	<path style="fill:#3E721D;" d="M81.562,384c0-7.9-6.4-14.2-14.2-14.2c-7.1,0-13,5.2-14,12.1c-0.1,0.7-0.2,1.4-0.2,2.1
		c0,7.9,6.4,14.2,14.2,14.2c2.5,0,4.9-0.7,6.9-1.8C78.662,394,81.562,389.3,81.562,384z"/>
	<path style="fill:#3E721D;" d="M124.262,270.2c-7.9,0-14.2,6.4-14.2,14.2s6.4,14.2,14.2,14.2s14.2-6.4,14.2-14.2
		S132.162,270.2,124.262,270.2z"/>
	<path style="fill:#3E721D;" d="M38.962,256c0-7.9-6.4-14.2-14.2-14.2c-7.9,0-14.2,6.4-14.2,14.2s6.4,14.2,14.2,14.2
		S38.962,263.9,38.962,256z"/>
	<path style="fill:#3E721D;" d="M465.562,113.8c0,7.9,6.4,14.2,14.2,14.2c7.9,0,14.2-6.4,14.2-14.2s-6.4-14.2-14.2-14.2
		c-0.6,0-1.2,0-1.8,0.1C471.062,100.5,465.562,106.5,465.562,113.8z"/>
	<path style="fill:#3E721D;" d="M394.462,170.7c7.9,0,14.2-6.4,14.2-14.2s-6.4-14.2-14.2-14.2s-14.2,6.4-14.2,14.2
		S386.662,170.7,394.462,170.7z"/>
	<path style="fill:#3E721D;" d="M451.362,241.8c7.9,0,14.2-6.4,14.2-14.2c0-7.9-6.4-14.2-14.2-14.2c-7.9,0-14.2,6.4-14.2,14.2
		S443.462,241.8,451.362,241.8z"/>
	<path style="fill:#3E721D;" d="M408.662,327.1c-7.9,0-14.2,6.4-14.2,14.2c0,3.6,1.3,6.8,3.5,9.3c2.6,3,6.4,4.9,10.7,4.9
		c7.6,0,13.8-6,14.2-13.5c0-0.2,0-0.5,0-0.7C422.962,333.5,416.562,327.1,408.662,327.1z"/>
	<path style="fill:#3E721D;" d="M294.962,426.7c0,7.9,6.4,14.2,14.2,14.2c7.9,0,14.2-6.4,14.2-14.2c0-7.9-6.4-14.2-14.2-14.2
		C301.262,412.4,294.962,418.8,294.962,426.7z"/>
</g>
<g>
</g>
<g>
</g>
<g>
</g>
<g>
</g>
<g>
</g>
<g>
</g>
<g>
</g>
<g>
</g>
<g>
</g>
<g>
</g>
<g>
</g>
<g>
</g>
<g>
</g>
<g>
</g>
<g>
</g>
</svg>
