<?xml version="1.0" encoding="iso-8859-1"?>
<!-- Generator: Adobe Illustrator 19.0.0, SVG Export Plug-In . SVG Version: 6.00 Build 0)  -->
<svg version="1.1" id="Capa_1" xmlns="http://www.w3.org/2000/svg" xmlns:xlink="http://www.w3.org/1999/xlink" x="0px" y="0px"
	 viewBox="0 0 512.001 512.001" style="enable-background:new 0 0 512.001 512.001;" xml:space="preserve">
<path style="fill:#EF5050;" d="M242.225,512c-16.659,0-32.321-6.464-44.1-18.199L60.051,356.244
	c-10.327-10.287-16.725-23.933-18.014-38.419c-0.019-0.212-0.028-0.427-0.028-0.64V76.131c0-4.012,3.265-7.266,7.292-7.266h117.997
	c4.026,0,7.292,3.254,7.292,7.266v218.486l111.734,111.314c24.316,24.226,24.316,63.643,0,87.869
	C274.544,505.536,258.883,512,242.225,512z"/>
<g>
	<path style="fill:#0481BF;" d="M242.225,512c16.658,0,32.32-6.464,44.099-18.199c24.316-24.227,24.316-63.644,0-87.869
		l-16.277-16.217l-88.2,87.869l16.278,16.217C209.904,505.536,225.565,512,242.225,512z"/>
	<path style="fill:#0481BF;" d="M117.666,344.915c0-41.982-33.728-76.092-75.657-76.961v49.231c0,0.213,0.009,0.428,0.028,0.64
		c1.29,14.486,7.688,28.132,18.014,38.419l38.957,38.813C110.628,381.584,117.666,364.073,117.666,344.915z"/>
	<path style="fill:#0481BF;" d="M174.59,106.642V76.131c0-4.012-3.265-7.266-7.292-7.266H49.301c-4.027,0-7.292,3.254-7.292,7.266
		v30.511H174.59z"/>
</g>
<path style="opacity:0.1;fill:#210035;enable-background:new    ;" d="M274.808,501.34c-16.659,0-32.321-6.464-44.1-18.199
	L92.635,345.584c-10.327-10.287-16.725-23.932-18.014-38.419c-0.02-0.211-0.029-0.427-0.029-0.64V68.865H49.301
	c-4.027,0-7.292,3.254-7.292,7.266v241.055c0,0.213,0.009,0.428,0.028,0.64c1.29,14.486,7.688,28.132,18.014,38.419l138.073,137.557
	c11.779,11.735,27.441,18.199,44.1,18.199c12.68,0,24.777-3.755,35.03-10.72C276.441,501.311,275.627,501.34,274.808,501.34z"/>
<g>
	<path style="fill:#5E9900;" d="M67.081,191.165c-0.999,1.314-2.634,1.314-3.633,0l-18.605-24.451c-0.999-1.313-0.999-3.462,0-4.775
		l18.605-24.451c0.999-1.314,2.634-1.314,3.633,0l18.604,24.451c0.999,1.313,0.999,3.462,0,4.775L67.081,191.165z"/>
	<path style="fill:#5E9900;" d="M110.449,191.165c-0.999,1.314-2.634,1.314-3.633,0l-18.604-24.451
		c-0.999-1.313-0.999-3.462,0-4.775l18.604-24.451c0.999-1.314,2.634-1.314,3.633,0l18.605,24.451c0.999,1.313,0.999,3.462,0,4.775
		L110.449,191.165z"/>
	<path style="fill:#5E9900;" d="M153.818,191.165c-0.999,1.314-2.634,1.314-3.633,0l-18.605-24.451
		c-0.999-1.313-0.999-3.462,0-4.775l18.605-24.451c0.999-1.314,2.634-1.314,3.633,0l18.602,24.451c0.999,1.313,0.999,3.462,0,4.775
		L153.818,191.165z"/>
</g>
<path style="fill:#EF5050;" d="M407.655,443.135c-16.659,0-32.321-6.465-44.1-18.2L225.481,287.379
	c-10.327-10.288-16.724-23.934-18.014-38.419c-0.02-0.213-0.029-0.427-0.029-0.64V7.266c0-4.013,3.266-7.266,7.292-7.266h117.997
	c4.026,0,7.292,3.253,7.292,7.266v218.487l111.734,111.314c24.316,24.226,24.316,63.643,0,87.868
	C439.975,436.67,424.313,443.135,407.655,443.135z"/>
<g>
	<path style="fill:#0481BF;" d="M407.655,443.135c16.659,0,32.32-6.465,44.1-18.2c24.316-24.226,24.316-63.643,0-87.868
		l-16.277-16.217l-88.2,87.869l16.277,16.216C375.334,436.67,390.996,443.135,407.655,443.135z"/>
	<path style="fill:#0481BF;" d="M283.097,276.051c0-41.983-33.728-76.093-75.658-76.962v49.231c0,0.213,0.009,0.427,0.029,0.64
		c1.289,14.485,7.686,28.131,18.014,38.419l38.958,38.813C276.059,312.719,283.097,295.207,283.097,276.051z"/>
	<path style="fill:#0481BF;" d="M340.02,37.775V7.266c0-4.013-3.266-7.266-7.292-7.266H214.731c-4.027,0-7.292,3.253-7.292,7.266
		v30.51L340.02,37.775L340.02,37.775z"/>
</g>
<path style="opacity:0.1;fill:#210035;enable-background:new    ;" d="M439.724,432.318c-16.659,0-32.321-6.465-44.1-18.201
	L257.551,276.563c-10.327-10.289-16.724-23.934-18.014-38.42c-0.02-0.212-0.029-0.426-0.029-0.64V0h-24.777
	c-4.027,0-7.292,3.253-7.292,7.266V248.32c0,0.213,0.009,0.427,0.029,0.64c1.289,14.485,7.686,28.131,18.014,38.419l138.073,137.556
	c11.779,11.735,27.441,18.2,44.1,18.2c12.787,0,24.979-3.822,35.286-10.9C441.873,432.289,440.801,432.318,439.724,432.318z"/>
<g>
	<path style="fill:#5E9900;" d="M232.512,122.3c-0.999,1.313-2.634,1.313-3.633,0l-18.606-24.451c-0.999-1.313-0.999-3.462,0-4.775
		l18.606-24.451c0.999-1.313,2.634-1.313,3.633,0l18.604,24.451c0.999,1.314,0.999,3.462,0,4.775L232.512,122.3z"/>
	<path style="fill:#5E9900;" d="M275.88,122.3c-0.999,1.313-2.634,1.313-3.633,0l-18.605-24.451c-0.999-1.313-0.999-3.462,0-4.775
		l18.605-24.451c0.999-1.313,2.634-1.313,3.633,0l18.605,24.451c0.999,1.314,0.999,3.462,0,4.775L275.88,122.3z"/>
	<path style="fill:#5E9900;" d="M319.248,122.3c-0.999,1.313-2.634,1.313-3.633,0l-18.604-24.451c-0.999-1.313-0.999-3.462,0-4.775
		l18.604-24.451c0.999-1.313,2.634-1.313,3.633,0l18.602,24.451c0.999,1.314,0.999,3.462,0,4.775L319.248,122.3z"/>
	<path style="fill:#5E9900;" d="M345.912,368.934c0.226,1.635-0.927,2.788-2.561,2.564l-26.407-3.62
		c-1.635-0.224-3.157-1.744-3.383-3.379l-3.631-26.285c-0.226-1.635,0.927-2.788,2.561-2.564l26.405,3.621
		c1.635,0.224,3.157,1.744,3.383,3.379L345.912,368.934z"/>
	<path style="fill:#5E9900;" d="M373.114,341.835c0.226,1.635-0.927,2.788-2.562,2.563l-26.406-3.621
		c-1.635-0.225-3.157-1.745-3.383-3.38l-3.632-26.285c-0.226-1.635,0.927-2.788,2.562-2.564l26.407,3.621
		c1.635,0.224,3.157,1.744,3.383,3.379L373.114,341.835z"/>
	<path style="fill:#5E9900;" d="M400.317,314.732c0.226,1.635-0.927,2.788-2.561,2.565l-26.406-3.62
		c-1.635-0.224-3.157-1.744-3.383-3.379l-3.632-26.286c-0.226-1.635,0.927-2.788,2.561-2.564l26.405,3.622
		c1.635,0.224,3.157,1.744,3.383,3.379L400.317,314.732z"/>
	<path style="fill:#5E9900;" d="M180.785,439.206c0.225,1.635-0.927,2.788-2.562,2.564l-26.407-3.621
		c-1.635-0.224-3.157-1.744-3.383-3.379l-3.631-26.285c-0.226-1.635,0.927-2.788,2.561-2.565l26.405,3.621
		c1.635,0.224,3.157,1.744,3.383,3.379L180.785,439.206z"/>
	<path style="fill:#5E9900;" d="M207.988,412.106c0.226,1.635-0.927,2.788-2.561,2.563l-26.406-3.621
		c-1.635-0.225-3.157-1.745-3.383-3.38l-3.632-26.285c-0.226-1.635,0.927-2.788,2.561-2.564l26.407,3.621
		c1.635,0.224,3.157,1.744,3.383,3.379L207.988,412.106z"/>
	<path style="fill:#5E9900;" d="M235.191,385.004c0.226,1.635-0.927,2.788-2.562,2.564l-26.406-3.62
		c-1.635-0.224-3.157-1.744-3.383-3.379l-3.632-26.286c-0.226-1.635,0.927-2.788,2.561-2.564l26.404,3.622
		c1.635,0.225,3.157,1.745,3.383,3.38L235.191,385.004z"/>
</g>
<g>
	<path style="fill:#C1262C;" d="M104.487,215.31c-2.058-3.597-6.639-4.842-10.235-2.785l-4.158,2.38v-4.673
		c0-4.143-3.358-7.5-7.5-7.5s-7.5,3.357-7.5,7.5v4.672l-4.158-2.379c-3.595-2.057-8.177-0.811-10.235,2.785
		c-2.057,3.595-0.811,8.177,2.785,10.234l4.007,2.293l-4.007,2.293c-3.595,2.058-4.842,6.64-2.785,10.234
		c1.385,2.421,3.915,3.776,6.517,3.776c1.263,0,2.543-0.319,3.718-0.991l4.158-2.379v4.672c0,4.143,3.358,7.5,7.5,7.5
		s7.5-3.357,7.5-7.5v-4.673l4.158,2.38c1.175,0.672,2.455,0.991,3.718,0.991c2.602,0,5.131-1.355,6.517-3.776
		c2.057-3.595,0.811-8.177-2.785-10.234l-4.007-2.293l4.007-2.293C105.298,223.486,106.544,218.904,104.487,215.31z"/>
	<path style="fill:#C1262C;" d="M158.897,215.31c-2.057-3.597-6.64-4.842-10.234-2.785l-4.157,2.379v-4.672
		c0-4.143-3.358-7.5-7.5-7.5s-7.5,3.357-7.5,7.5v4.672l-4.158-2.379c-3.593-2.055-8.177-0.811-10.234,2.785
		c-2.058,3.595-0.811,8.177,2.784,10.234l4.007,2.293l-4.007,2.293c-3.595,2.058-4.842,6.64-2.784,10.234
		c1.385,2.421,3.914,3.776,6.516,3.776c1.263,0,2.544-0.319,3.718-0.991l4.158-2.379v4.672c0,4.143,3.358,7.5,7.5,7.5
		s7.5-3.357,7.5-7.5v-4.672l4.157,2.379c1.175,0.672,2.455,0.991,3.718,0.991c2.602,0,5.131-1.355,6.516-3.776
		c2.058-3.595,0.811-8.177-2.784-10.234l-4.007-2.293l4.007-2.293C159.708,223.486,160.955,218.904,158.897,215.31z"/>
	<path style="fill:#C1262C;" d="M269.916,146.443c-2.058-3.596-6.639-4.841-10.234-2.785l-4.157,2.379v-4.672
		c0-4.143-3.358-7.5-7.5-7.5s-7.5,3.357-7.5,7.5v4.672l-4.158-2.379c-3.593-2.055-8.177-0.812-10.234,2.785
		c-2.058,3.595-0.811,8.177,2.784,10.234l4.007,2.293l-4.007,2.293c-3.595,2.058-4.842,6.64-2.784,10.234
		c1.385,2.421,3.914,3.776,6.516,3.776c1.263,0,2.544-0.319,3.718-0.991l4.158-2.379v4.672c0,4.143,3.358,7.5,7.5,7.5
		s7.5-3.357,7.5-7.5v-4.672l4.157,2.379c1.175,0.672,2.455,0.991,3.718,0.991c2.602,0,5.131-1.355,6.516-3.776
		c2.058-3.595,0.811-8.177-2.784-10.234l-4.007-2.293l4.007-2.293C270.727,154.62,271.974,150.038,269.916,146.443z"/>
	<path style="fill:#C1262C;" d="M321.543,161.264l-4.007-2.293l4.007-2.293c3.595-2.058,4.842-6.64,2.785-10.234
		c-2.058-3.596-6.64-4.841-10.235-2.785l-4.158,2.379v-4.672c0-4.143-3.358-7.5-7.5-7.5s-7.5,3.357-7.5,7.5v4.672l-4.158-2.379
		c-3.595-2.056-8.177-0.811-10.235,2.785c-2.057,3.595-0.811,8.177,2.785,10.234l4.007,2.293l-4.007,2.293
		c-3.595,2.058-4.842,6.64-2.785,10.234c1.385,2.421,3.914,3.776,6.517,3.776c1.263,0,2.543-0.319,3.718-0.991l4.158-2.379v4.672
		c0,4.143,3.358,7.5,7.5,7.5s7.5-3.357,7.5-7.5v-4.672l4.158,2.379c1.175,0.672,2.455,0.991,3.718,0.991
		c2.602,0,5.131-1.355,6.517-3.776C326.385,167.903,325.139,163.321,321.543,161.264z"/>
</g>
<g>
</g>
<g>
</g>
<g>
</g>
<g>
</g>
<g>
</g>
<g>
</g>
<g>
</g>
<g>
</g>
<g>
</g>
<g>
</g>
<g>
</g>
<g>
</g>
<g>
</g>
<g>
</g>
<g>
</g>
</svg>
