<?xml version="1.0" encoding="iso-8859-1"?>
<!-- Generator: Adobe Illustrator 19.0.0, SVG Export Plug-In . SVG Version: 6.00 Build 0)  -->
<svg version="1.1" id="Capa_1" xmlns="http://www.w3.org/2000/svg" xmlns:xlink="http://www.w3.org/1999/xlink" x="0px" y="0px"
	 viewBox="0 0 468.293 468.293" style="enable-background:new 0 0 468.293 468.293;" xml:space="preserve">
<path style="fill:#F6C358;" d="M468.266,225.174v40.553c0,0,2.016,17.844-28.754,36.492c-12.846,7.785-25.151,16.44-36.678,26.071
	c-23.571,19.695-59.231,51.709-82.821,83.162c0,0-13.478,18.532-50.541,5.054c0,0-135.618-69.072-229.118-81.708
	c0,0-18.532,0-19.374-19.374v-40.553l0,0L468.266,225.174"/>
<path style="fill:#FCD462;" d="M20.98,274.873c0,0,110.347-58.964,163.415-101.082c0,0,49.698-48.014,163.415-30.324
	c0,0,111.19,16.847,120.456,81.708c0,0,2.016,17.844-28.754,36.492c-12.846,7.786-25.151,16.44-36.678,26.071
	c-23.571,19.695-59.231,51.709-82.821,83.162c0,0-13.478,18.532-50.541,5.054c0,0-135.618-69.072-229.118-81.708
	C40.354,294.247,21.822,294.247,20.98,274.873z"/>
<path style="fill:#F6C358;" d="M447.286,132.494v40.553c0,0,2.016,17.844-28.754,36.492c-12.846,7.786-25.151,16.44-36.678,26.071
	c-23.571,19.695-59.231,51.709-82.821,83.162c0,0-13.478,18.532-50.541,5.054c0,0-135.618-69.072-229.118-81.708
	c0,0-18.532,0-19.374-19.374v-40.553l0,0L447.286,132.494"/>
<path style="fill:#FCD462;" d="M0,182.193c0,0,110.347-58.964,163.415-101.082c0,0,49.698-48.014,163.415-30.324
	c0,0,111.19,16.847,120.456,81.708c0,0,2.016,17.844-28.754,36.492c-12.846,7.786-25.151,16.44-36.678,26.071
	c-23.571,19.695-59.231,51.709-82.821,83.162c0,0-13.478,18.532-50.541,5.054c0,0-135.618-69.072-229.118-81.708
	C19.374,201.567,0.842,201.567,0,182.193z"/>
<g>
</g>
<g>
</g>
<g>
</g>
<g>
</g>
<g>
</g>
<g>
</g>
<g>
</g>
<g>
</g>
<g>
</g>
<g>
</g>
<g>
</g>
<g>
</g>
<g>
</g>
<g>
</g>
<g>
</g>
</svg>
