<?xml version="1.0" encoding="iso-8859-1"?>
<!-- Generator: Adobe Illustrator 19.0.0, SVG Export Plug-In . SVG Version: 6.00 Build 0)  -->
<svg version="1.1" id="Capa_1" xmlns="http://www.w3.org/2000/svg" xmlns:xlink="http://www.w3.org/1999/xlink" x="0px" y="0px"
	 viewBox="0 0 468.293 468.293" style="enable-background:new 0 0 468.293 468.293;" xml:space="preserve">
<path style="fill:#3A556A;" d="M426.103,326.425H42.19c-14.777,0-26.756-11.979-26.756-26.756v0
	c0-14.777,11.979-26.756,26.756-26.756h383.913c14.777,0,26.756,11.979,26.756,26.756v0
	C452.858,314.446,440.879,326.425,426.103,326.425z"/>
<path style="fill:#DC8744;" d="M450.545,253.404c1.829-8.177,2.813-16.555,2.813-25.102c0-86.847-98.144-157.25-219.212-157.25
	c-121.067,0-219.212,70.403-219.212,157.25c0,8.547,0.984,16.925,2.813,25.102H450.545z"/>
<g>
	<circle style="fill:#FCD462;" cx="268.638" cy="170.996" r="8.766"/>
	<circle style="fill:#FCD462;" cx="326.15" cy="199.387" r="8.766"/>
	<circle style="fill:#FCD462;" cx="387.372" cy="219.729" r="8.766"/>
	<circle style="fill:#FCD462;" cx="356.34" cy="167.149" r="8.766"/>
	<circle style="fill:#FCD462;" cx="193.917" cy="143.972" r="8.766"/>
	<circle style="fill:#FCD462;" cx="107.532" cy="170.996" r="8.766"/>
	<circle style="fill:#FCD462;" cx="137.753" cy="126.439" r="8.766"/>
	<circle style="fill:#FCD462;" cx="55.883" cy="216.913" r="8.766"/>
	<circle style="fill:#FCD462;" cx="141.861" cy="210.981" r="8.766"/>
	<circle style="fill:#FCD462;" cx="302.136" cy="126.439" r="8.766"/>
	<circle style="fill:#FCD462;" cx="206.711" cy="208.153" r="8.766"/>
	<circle style="fill:#FCD462;" cx="272.484" cy="225.692" r="8.766"/>
	<circle style="fill:#FCD462;" cx="234.146" cy="105.01" r="8.766"/>
</g>
<path style="fill:#44C4A1;" d="M0,281.586L0,281.586c0-15.565,8.71-28.182,19.455-28.182h429.383
	c10.745,0,19.455,12.618,19.455,28.182v0c-7.245-10.495-19.633-10.477-26.878,0.018l-10.547,15.279
	c-7.245,10.495-18.992,10.495-26.237,0l-10.547-15.279c-7.245-10.495-18.992-10.495-26.237,0l-10.548,15.279
	c-7.245,10.495-18.992,10.495-26.237,0l-10.548-15.279c-7.245-10.495-18.992-10.495-26.237,0l-10.548,15.279
	c-7.245,10.495-18.992,10.495-26.237,0l-10.548-15.279c-7.245-10.495-18.992-10.495-26.237,0l-10.548,15.279
	c-7.245,10.495-18.992,10.495-26.237,0l-10.548-15.279c-7.245-10.495-18.992-10.495-26.237,0l-10.548,15.279
	c-7.245,10.495-18.992,10.495-26.237,0l-10.547-15.279c-7.245-10.495-18.992-10.495-26.237,0l-10.548,15.279
	c-7.245,10.495-18.992,10.495-26.237,0l-10.548-15.279c-7.245-10.495-18.992-10.495-26.237,0"/>
<path style="fill:#F6C358;" d="M387.112,397.241H81.18c-24.139,0-43.707-19.568-43.707-43.707v-27.109H430.82v27.109
	C430.82,377.672,411.251,397.241,387.112,397.241z"/>
<g>
</g>
<g>
</g>
<g>
</g>
<g>
</g>
<g>
</g>
<g>
</g>
<g>
</g>
<g>
</g>
<g>
</g>
<g>
</g>
<g>
</g>
<g>
</g>
<g>
</g>
<g>
</g>
<g>
</g>
</svg>
