<?xml version="1.0" encoding="iso-8859-1"?>
<!-- Generator: Adobe Illustrator 19.0.0, SVG Export Plug-In . SVG Version: 6.00 Build 0)  -->
<svg version="1.1" id="Capa_1" xmlns="http://www.w3.org/2000/svg" xmlns:xlink="http://www.w3.org/1999/xlink" x="0px" y="0px"
	 viewBox="0 0 468.293 468.293" style="enable-background:new 0 0 468.293 468.293;" xml:space="preserve">
<path style="fill:#FCD462;" d="M17.289,69.187L245.67,468.293L451.003,69.187C451.003,69.187,275.003-85.156,17.289,69.187z"/>
<path style="fill:#DC8744;" d="M17.289,69.187c0,0,222.095-155.671,433.714,0l-30.94,60.137c0,0-145.378-147.216-368.361,0
	L17.289,69.187z"/>
<g>
	<path style="fill:#E56353;" d="M350.353,184.872c-20.306,0-36.827-16.521-36.827-36.827s16.521-36.822,36.827-36.822
		c20.306,0,36.827,16.515,36.827,36.822S370.659,184.872,350.353,184.872z M350.353,123.166c-13.722,0-24.884,11.162-24.884,24.878
		c0,13.722,11.162,24.884,24.884,24.884c13.722,0,24.884-11.162,24.884-24.884C375.237,134.328,364.075,123.166,350.353,123.166z"/>
	<path style="fill:#E56353;" d="M204.969,241.08c-7.404,0-13.429-6.024-13.429-13.429c0-7.404,6.024-13.427,13.429-13.427
		c7.404,0,13.429,6.022,13.429,13.427C218.397,235.055,212.373,241.08,204.969,241.08z M204.969,218.579
		c-5.004,0-9.074,4.07-9.074,9.072c0,5.004,4.07,9.074,9.074,9.074c5.004,0,9.074-4.07,9.074-9.074
		C214.042,222.649,209.972,218.579,204.969,218.579z"/>
	<path style="fill:#E56353;" d="M290.813,203.587c-7.404,0-13.429-6.024-13.429-13.429c0-7.404,6.024-13.427,13.429-13.427
		c7.404,0,13.429,6.022,13.429,13.427C304.242,197.562,298.217,203.587,290.813,203.587z M290.813,181.086
		c-5.004,0-9.074,4.07-9.074,9.072c0,5.004,4.07,9.074,9.074,9.074s9.074-4.07,9.074-9.074
		C299.887,185.156,295.817,181.086,290.813,181.086z"/>
	<path style="fill:#E56353;" d="M253.986,110.062c-7.404,0-13.429-6.024-13.429-13.429c0-7.404,6.024-13.427,13.429-13.427
		c7.404,0,13.429,6.022,13.429,13.427C267.414,104.037,261.39,110.062,253.986,110.062z M253.986,87.561
		c-5.004,0-9.074,4.07-9.074,9.072c0,5.004,4.07,9.074,9.074,9.074c5.004,0,9.074-4.07,9.074-9.074
		C263.059,91.631,258.989,87.561,253.986,87.561z"/>
	<path style="fill:#E56353;" d="M313.525,306.425c-7.404,0-13.429-6.024-13.429-13.429c0-7.404,6.024-13.427,13.429-13.427
		c7.404,0,13.429,6.022,13.429,13.427C326.954,300.4,320.93,306.425,313.525,306.425z M313.525,283.924
		c-5.004,0-9.074,4.07-9.074,9.072c0,5.004,4.07,9.074,9.074,9.074c5.004,0,9.074-4.07,9.074-9.074
		C322.599,287.994,318.529,283.924,313.525,283.924z"/>
	<path style="fill:#E56353;" d="M253.986,366.646c-20.306,0-36.827-16.521-36.827-36.827s16.521-36.822,36.827-36.822
		s36.827,16.516,36.827,36.822S274.292,366.646,253.986,366.646z M253.986,304.94c-13.722,0-24.884,11.162-24.884,24.878
		c0,13.722,11.162,24.884,24.884,24.884c13.722,0,24.884-11.162,24.884-24.884C278.87,316.102,267.708,304.94,253.986,304.94z"/>
	<path style="fill:#E56353;" d="M142.941,184.872c-20.306,0-36.827-16.521-36.827-36.827s16.521-36.822,36.827-36.822
		s36.827,16.515,36.827,36.822S163.247,184.872,142.941,184.872z M142.941,123.166c-13.722,0-24.884,11.162-24.884,24.878
		c0,13.722,11.162,24.884,24.884,24.884s24.884-11.162,24.884-24.884C167.825,134.328,156.663,123.166,142.941,123.166z"/>
</g>
<circle style="fill:#3A556A;" cx="202.571" cy="111.223" r="14.586"/>
<circle style="fill:#3EA69B;" cx="263.324" cy="234.459" r="14.586"/>
<circle style="fill:#3A556A;" cx="202.571" cy="278.416" r="14.586"/>
<circle style="fill:#3EA69B;" cx="268.575" cy="140.4" r="14.586"/>
<g>
	<circle style="fill:#3A556A;" cx="219.561" cy="171.114" r="14.586"/>
	<circle style="fill:#3A556A;" cx="313.525" cy="87.215" r="14.586"/>
	<circle style="fill:#3A556A;" cx="313.525" cy="242.263" r="14.586"/>
</g>
<g>
	<circle style="fill:#3EA69B;" cx="248.757" cy="405.791" r="14.586"/>
	<circle style="fill:#3EA69B;" cx="165.182" cy="219.854" r="14.586"/>
</g>
<g>
</g>
<g>
</g>
<g>
</g>
<g>
</g>
<g>
</g>
<g>
</g>
<g>
</g>
<g>
</g>
<g>
</g>
<g>
</g>
<g>
</g>
<g>
</g>
<g>
</g>
<g>
</g>
<g>
</g>
</svg>
